<svg width="40" height="40" viewBox="0 0 40 40" fill="none" xmlns="http://www.w3.org/2000/svg">
<g id="Frame 151">
<rect width="40" height="40" rx="12" fill="#333333"/>
<path id="Path 3" fill-rule="evenodd" clip-rule="evenodd" d="M9.64987 18.6099C16.0923 15.7874 20.3883 13.9267 22.5378 13.0277C28.675 10.4608 29.9503 10.0149 30.7815 10.0002C30.9643 9.99692 31.3731 10.0425 31.6379 10.2585C31.8614 10.4409 31.9229 10.6874 31.9524 10.8603C31.9818 11.0333 32.0185 11.4273 31.9893 11.7351C31.6568 15.249 30.2177 23.7762 29.4856 27.7118C29.1758 29.3771 28.5658 29.9354 27.9753 29.9901C26.6919 30.1088 25.7174 29.1372 24.4744 28.3179C22.5294 27.0358 21.4305 26.2377 19.5425 24.9867C17.3606 23.5408 18.7751 22.7462 20.0185 21.4475C20.344 21.1076 25.9985 15.9358 26.1079 15.4667C26.1216 15.408 26.1343 15.1893 26.0051 15.0738C25.8759 14.9583 25.6851 14.9978 25.5475 15.0292C25.3524 15.0737 22.2452 17.1389 16.2258 21.2247C15.3439 21.8337 14.545 22.1304 13.8292 22.1149C13.0402 22.0977 11.5223 21.6663 10.394 21.2974C9.00999 20.8451 7.91003 20.6059 8.00581 19.8376C8.0557 19.4374 8.60372 19.0282 9.64987 18.6099Z" fill="white"/>
</g>
</svg>
