<svg width="229" height="26" viewBox="0 0 229 26" fill="none" xmlns="http://www.w3.org/2000/svg">
<path d="M11.5 3C11.6429 3 11.7588 3.1221 11.7588 3.27273V3.60922L12.0138 3.44796C12.1364 3.37046 12.2953 3.41234 12.3689 3.5415C12.4424 3.67066 12.4026 3.83819 12.2801 3.91568L11.7588 4.24533V5.52764L12.8125 4.88648L12.8227 4.24586C12.8251 4.09526 12.9429 3.97522 13.0858 3.97776C13.2287 3.98029 13.3426 4.10443 13.3402 4.25503L13.3352 4.56843L13.6118 4.40019C13.7355 4.32488 13.8938 4.36957 13.9653 4.50001C14.0367 4.63046 13.9943 4.79725 13.8705 4.87256L13.594 5.04081L13.8541 5.19294C13.979 5.26605 14.0241 5.43207 13.9547 5.56376C13.8854 5.69545 13.7278 5.74295 13.6029 5.66984L13.0713 5.35886L12.0176 6L13.0713 6.64116L13.6029 6.33018C13.7278 6.25707 13.8854 6.30457 13.9547 6.43626C14.0241 6.56795 13.979 6.73397 13.8541 6.80708L13.5941 6.95921L13.8706 7.12746C13.9943 7.20277 14.0367 7.36957 13.9653 7.50001C13.8938 7.63045 13.7356 7.67515 13.6118 7.59983L13.3353 7.43159L13.3403 7.74499C13.3427 7.89559 13.2288 8.01973 13.0859 8.02226C12.943 8.0248 12.8252 7.90476 12.8228 7.75416L12.8125 7.11354L11.7588 6.47237V7.75468L12.2801 8.08432C12.4026 8.16182 12.4424 8.32935 12.3689 8.4585C12.2953 8.58766 12.1364 8.62954 12.0138 8.55205L11.7588 8.39078V8.72727C11.7588 8.8779 11.6429 9 11.5 9C11.3571 9 11.2412 8.8779 11.2412 8.72727V8.39078L10.9862 8.55205C10.8636 8.62954 10.7046 8.58766 10.6311 8.4585C10.5576 8.32935 10.5973 8.16182 10.7199 8.08432L11.2412 7.75468V6.4724L10.1875 7.11354L10.1772 7.75416C10.1748 7.90476 10.057 8.0248 9.91413 8.02226C9.77123 8.01973 9.65733 7.89559 9.65974 7.74499L9.66474 7.43159L9.38822 7.59984C9.26445 7.67515 9.10618 7.63046 9.03471 7.50001C8.96325 7.36957 9.00566 7.20277 9.12944 7.12746L9.40595 6.95921L9.14592 6.80708C9.02095 6.73397 8.97589 6.56795 9.04526 6.43626C9.11463 6.30457 9.27217 6.25707 9.39713 6.33018L9.92868 6.64116L10.9824 6L9.9287 5.35886L9.39715 5.66984C9.27219 5.74295 9.11465 5.69546 9.04528 5.56376C8.97591 5.43207 9.02098 5.26605 9.14594 5.19294L9.40598 5.04081L9.12946 4.87256C9.00568 4.79725 8.96328 4.63045 9.03474 4.50001C9.1062 4.36957 9.26447 4.32487 9.38825 4.40018L9.66476 4.56843L9.65976 4.25503C9.65736 4.10443 9.77125 3.98029 9.91416 3.97776C10.0571 3.97522 10.1749 4.09526 10.1773 4.24586L10.1875 4.88648L11.2412 5.52761V4.24533L10.7199 3.91568C10.5973 3.83819 10.5576 3.67066 10.6311 3.5415C10.7046 3.41234 10.8636 3.37046 10.9862 3.44796L11.2412 3.60922V3.27273C11.2412 3.1221 11.3571 3 11.5 3Z" fill="#444444"/>
<path fill-rule="evenodd" clip-rule="evenodd" d="M11.9498 16.1007C11.9002 16.0408 11.8271 16.0044 11.7486 16.0004C11.6701 15.9964 11.5934 16.0254 11.5377 16.0799L11.5359 16.0817L11.5327 16.0849C11.5302 16.0875 11.5269 16.0909 11.5229 16.095C11.5148 16.1034 11.5039 16.115 11.4906 16.1298C11.464 16.1593 11.4276 16.2016 11.3851 16.2562C11.3001 16.3653 11.19 16.5244 11.0845 16.7291C10.9606 16.9694 10.8427 17.2737 10.7797 17.6339C10.7112 17.527 10.6498 17.4283 10.6044 17.3546C10.5798 17.3147 10.56 17.2822 10.5464 17.2597L10.5307 17.2339L10.5255 17.2252C10.4657 17.1256 10.3484 17.0738 10.2329 17.096C10.1173 17.1182 10.0285 17.2095 10.0113 17.3239C9.95969 17.6683 9.77873 17.9624 9.55906 18.3111L9.54762 18.3293C9.34028 18.6583 9.09942 19.0405 9.02961 19.5057C8.90486 20.3371 9.18382 20.9772 9.68705 21.4006C10.1776 21.8133 10.8557 22 11.5133 22C12.1731 22 12.7986 21.8172 13.2622 21.4029C13.7303 20.9846 14 20.3602 14 19.5455C14 18.7934 13.7583 18.261 13.3757 17.748C13.1889 17.4974 12.9671 17.2496 12.7287 16.9864L12.6641 16.9151C12.4417 16.6698 12.2027 16.4062 11.9498 16.1007ZM11.5802 16.9754C11.6343 16.8703 11.6897 16.7803 11.74 16.7064C11.9197 16.9144 12.0906 17.1029 12.2486 17.2772L12.3136 17.3488C12.5538 17.6141 12.7584 17.8435 12.9275 18.0702C13.2567 18.5117 13.4444 18.9338 13.4444 19.5455C13.4444 20.237 13.2196 20.7034 12.8883 20.9995C12.7428 21.1295 12.5706 21.2322 12.3765 21.3069C12.5235 21.1219 12.6111 20.8892 12.6111 20.6364C12.6111 20.1661 12.4514 19.7704 12.2469 19.4892C12.1449 19.349 12.0283 19.2326 11.9088 19.1488C11.7961 19.0698 11.6523 19 11.5 19C11.3476 19 11.2038 19.0698 11.0911 19.1488C10.9716 19.2326 10.8551 19.349 10.7531 19.4892C10.5485 19.7704 10.3889 20.1661 10.3889 20.6364C10.3889 20.8896 10.4768 21.1227 10.6242 21.3079C10.4068 21.2304 10.2106 21.1228 10.0485 20.9864C9.69657 20.6903 9.48106 20.2395 9.57924 19.5852C9.63092 19.2408 9.81189 18.9467 10.0316 18.598L10.043 18.5799C10.1517 18.4074 10.2696 18.2202 10.3673 18.0141C10.5117 18.2366 10.6862 18.4928 10.8143 18.6351C10.8937 18.7234 11.0219 18.7516 11.1321 18.7051C11.2423 18.6586 11.3097 18.5479 11.2992 18.4306C11.2433 17.8099 11.405 17.3153 11.5802 16.9754ZM10.9444 20.6364C10.9444 20.2885 11.0625 20.0023 11.2052 19.8062C11.2768 19.7078 11.3513 19.6367 11.414 19.5927C11.4618 19.5592 11.4908 19.5494 11.5 19.5466C11.5091 19.5494 11.5382 19.5592 11.5859 19.5927C11.6487 19.6367 11.7232 19.7078 11.7948 19.8062C11.9374 20.0023 12.0555 20.2885 12.0555 20.6364C12.0555 20.9376 11.8068 21.1818 11.5 21.1818C11.1932 21.1818 10.9444 20.9376 10.9444 20.6364Z" fill="#444444"/>
<path fill-rule="evenodd" clip-rule="evenodd" d="M11.5 25C15.0899 25 18 22.1346 18 18.6C18 16.7046 17.1632 15.0016 15.8333 13.8297V5.26667C15.8333 2.91029 13.8932 1 11.5 1C9.1068 1 7.16667 2.91029 7.16667 5.26667V13.8297C5.83683 15.0016 5 16.7046 5 18.6C5 22.1346 7.91014 25 11.5 25ZM11.5 23.9333C14.4916 23.9333 16.9167 21.5456 16.9167 18.6C16.9167 16.8551 16.0657 15.306 14.75 14.3329V5.26667C14.75 3.49935 13.2949 2.06667 11.5 2.06667C9.70507 2.06667 8.25 3.49935 8.25 5.26667V14.3329C6.93432 15.306 6.08333 16.8551 6.08333 18.6C6.08333 21.5456 8.5084 23.9333 11.5 23.9333Z" fill="#444444"/>
<path d="M11 10.5C11 10.2239 11.2239 10 11.5 10C11.7761 10 12 10.2239 12 10.5V14.5C12 14.7761 11.7761 15 11.5 15C11.2239 15 11 14.7761 11 14.5V10.5Z" fill="#444444"/>
<path d="M54.02 2.968C55.4707 4.41867 56.196 6.20933 56.196 8.34C56.196 10.4707 55.4707 12.2613 54.02 13.712C52.592 15.1627 50.654 15.888 48.206 15.888H43.548V25H38.822V0.792H48.206C50.654 0.792 52.592 1.51733 54.02 2.968ZM50.518 10.754C51.1527 10.142 51.47 9.33733 51.47 8.34C51.47 7.34267 51.1527 6.538 50.518 5.926C49.8833 5.314 49.0333 5.008 47.968 5.008H43.548V11.638H47.968C49.0333 11.638 49.8833 11.3433 50.518 10.754ZM76.8316 6.81C77.1036 8.14733 77.2396 10.176 77.2396 12.896C77.2396 15.616 77.1036 17.6447 76.8316 18.982C76.5596 20.3193 75.8683 21.5433 74.7576 22.654C73.0576 24.354 70.9043 25.204 68.2976 25.204C65.6683 25.204 63.5036 24.354 61.8036 22.654C60.6929 21.5433 60.0016 20.3307 59.7296 19.016C59.4803 17.6787 59.3556 15.6387 59.3556 12.896C59.3556 10.1533 59.4803 8.12467 59.7296 6.81C60.0016 5.47267 60.6929 4.24867 61.8036 3.138C63.5036 1.438 65.6683 0.587998 68.2976 0.587998C70.9043 0.587998 73.0576 1.438 74.7576 3.138C75.8683 4.24867 76.5596 5.47267 76.8316 6.81ZM72.5136 12.896C72.5136 10.652 72.4229 9.088 72.2416 8.204C72.0829 7.32 71.7769 6.61733 71.3236 6.096C70.5756 5.23467 69.5669 4.804 68.2976 4.804C67.0509 4.804 66.0309 5.23467 65.2376 6.096C64.7843 6.61733 64.4783 7.32 64.3196 8.204C64.1609 9.088 64.0816 10.652 64.0816 12.896C64.0816 15.14 64.1609 16.704 64.3196 17.588C64.4783 18.4493 64.7843 19.1407 65.2376 19.662C66.0536 20.546 67.0736 20.988 68.2976 20.988C69.5443 20.988 70.5529 20.546 71.3236 19.662C71.7769 19.118 72.0829 18.4153 72.2416 17.554C72.4229 16.67 72.5136 15.1173 72.5136 12.896ZM97.7605 25H82.0525V0.792H86.7785V20.784H97.7605V25ZM120.309 25H115.379L113.951 20.716H105.349L103.887 25H98.9571L107.763 0.792H111.469L120.309 25ZM112.693 16.738L109.735 7.932L106.675 16.738H112.693ZM141.617 25H136.143L131.417 15.344H128.017V25H123.291V0.792H132.777C135.179 0.792 137.083 1.506 138.489 2.934C139.917 4.362 140.631 6.11867 140.631 8.204C140.631 9.81333 140.211 11.162 139.373 12.25C138.534 13.338 137.48 14.1087 136.211 14.562L141.617 25ZM134.953 10.516C135.587 9.92667 135.905 9.156 135.905 8.204C135.905 7.252 135.587 6.48133 134.953 5.892C134.318 5.30267 133.491 5.008 132.471 5.008H128.017V11.4H132.471C133.491 11.4 134.318 11.1053 134.953 10.516ZM161.483 25H145.537V0.792H161.483V5.008H150.263V10.686H159.817V14.902H150.263V20.784H161.483V25ZM183.429 7.558C183.61 8.73667 183.701 10.516 183.701 12.896C183.701 15.276 183.61 17.0667 183.429 18.268C183.27 19.4467 182.851 20.512 182.171 21.464C180.471 23.8213 178.034 25 174.861 25H166.123V0.792H174.861C178.034 0.792 180.471 1.97067 182.171 4.328C182.851 5.28 183.27 6.35667 183.429 7.558ZM178.805 17.248C178.918 16.3867 178.975 14.936 178.975 12.896C178.975 10.856 178.918 9.40533 178.805 8.544C178.691 7.68267 178.419 7.00267 177.989 6.504C177.195 5.50667 176.017 5.008 174.453 5.008H170.849V20.784H174.453C176.017 20.784 177.195 20.2853 177.989 19.288C178.419 18.7893 178.691 18.1093 178.805 17.248ZM205.773 15.072C205.773 16.8627 205.603 18.3133 205.263 19.424C204.923 20.5347 204.322 21.5433 203.461 22.45C201.716 24.286 199.438 25.204 196.627 25.204C194.066 25.204 191.912 24.354 190.167 22.654C189.056 21.5433 188.365 20.3307 188.093 19.016C187.844 17.6787 187.719 15.6387 187.719 12.896C187.719 10.1533 187.844 8.12467 188.093 6.81C188.365 5.47267 189.056 4.24867 190.167 3.138C191.912 1.438 194.066 0.587998 196.627 0.587998C199.279 0.587998 201.364 1.32466 202.883 2.798C204.424 4.27133 205.376 6.11867 205.739 8.34H200.979C200.435 5.98267 198.984 4.804 196.627 4.804C195.403 4.804 194.394 5.23467 193.601 6.096C193.148 6.61733 192.842 7.32 192.683 8.204C192.524 9.088 192.445 10.652 192.445 12.896C192.445 15.1627 192.524 16.738 192.683 17.622C192.842 18.506 193.148 19.2087 193.601 19.73C194.372 20.5687 195.38 20.988 196.627 20.988C198.078 20.988 199.2 20.5347 199.993 19.628C200.718 18.812 201.081 17.7353 201.081 16.398V15.514H196.627V11.536H205.773V15.072ZM226.561 25H210.615V0.792H226.561V5.008H215.341V10.686H224.895V14.902H215.341V20.784H226.561V25Z" fill="#444444"/>
</svg>
