<svg width="25" height="24" viewBox="0 0 25 24" fill="none" xmlns="http://www.w3.org/2000/svg">
<path fill-rule="evenodd" clip-rule="evenodd" d="M7.33301 6C7.33301 5.44772 7.78072 5 8.33301 5L18.333 5C18.5982 5 18.8526 5.10536 19.0401 5.29289C19.2277 5.48043 19.333 5.73478 19.333 6L19.333 16C19.333 16.5523 18.8853 17 18.333 17C17.7807 17 17.333 16.5523 17.333 16L17.333 8.41421L7.04011 18.7071C6.64959 19.0976 6.01643 19.0976 5.6259 18.7071C5.23538 18.3166 5.23538 17.6834 5.6259 17.2929L15.9188 7L8.33301 7C7.78072 7 7.33301 6.55228 7.33301 6Z" fill="#333333"/>
</svg>
