<svg width="24" height="24" viewBox="0 0 24 24" fill="none" xmlns="http://www.w3.org/2000/svg">
<g id="sr-twoarrow-collidev2-vertical">
<g id="line">
<path d="M11 2C11 1.44772 10.5523 1 10 1C9.44771 1 9 1.44772 9 2V8.58578L6.70711 6.29289C6.31658 5.90237 5.68342 5.90237 5.29289 6.29289C4.90237 6.68342 4.90237 7.31658 5.29289 7.70711L9.29289 11.7071C9.48043 11.8946 9.73478 12 10 12C10.2652 12 10.5196 11.8946 10.7071 11.7071L14.7071 7.70711C15.0976 7.31658 15.0976 6.68342 14.7071 6.29289C14.3166 5.90237 13.6834 5.90237 13.2929 6.29289L11 8.58579V2Z" fill="#333333"/>
<path d="M17.2929 17.7071C17.6834 18.0976 18.3166 18.0976 18.7071 17.7071C19.0976 17.3166 19.0976 16.6834 18.7071 16.2929L14.7071 12.2929C14.5196 12.1054 14.2652 12 14 12C13.7348 12 13.4804 12.1054 13.2929 12.2929L9.29289 16.2929C8.90237 16.6834 8.90237 17.3166 9.29289 17.7071C9.68342 18.0976 10.3166 18.0976 10.7071 17.7071L13 15.4142V22C13 22.5523 13.4477 23 14 23C14.5523 23 15 22.5523 15 22V15.4142L17.2929 17.7071Z" fill="#333333"/>
</g>
</g>
</svg>
